<svg width="58" height="58" viewBox="0 0 1024 1024" role="img" aria-label="mdviewy" xmlns="http://www.w3.org/2000/svg">
  <defs>
    <linearGradient id="tile-settings" x1="120" y1="70" x2="900" y2="960" gradientUnits="userSpaceOnUse">
      <stop offset="0" stop-color="#0D2C35"/>
      <stop offset=".5" stop-color="#166870"/>
      <stop offset="1" stop-color="#72D6C7"/>
    </linearGradient>
    <radialGradient id="halo-settings" cx="0" cy="0" r="1" gradientTransform="matrix(265 0 0 265 500 314)" gradientUnits="userSpaceOnUse">
      <stop offset="0" stop-color="#F8D36B" stop-opacity=".58"/>
      <stop offset="1" stop-color="#F8D36B" stop-opacity="0"/>
    </radialGradient>
    <linearGradient id="fur-settings" x1="316" y1="238" x2="714" y2="812" gradientUnits="userSpaceOnUse">
      <stop offset="0" stop-color="#D3B895"/>
      <stop offset="1" stop-color="#8B684B"/>
    </linearGradient>
  </defs>
  <rect width="1024" height="1024" rx="224" fill="url(#tile-settings)"/>
  <circle cx="500" cy="314" r="280" fill="url(#halo-settings)"/>
  <path fill="#F5C85F" d="M782 166c13 50 24 61 74 74-50 13-61 24-74 74-13-50-24-61-74-74 50-13 61-24 74-74Z"/>
  <ellipse cx="512" cy="842" rx="254" ry="58" fill="#041F25" opacity=".24"/>
  <g>
    <circle cx="298" cy="354" r="128" fill="#9A7858"/>
    <circle cx="726" cy="354" r="128" fill="#9A7858"/>
    <circle cx="298" cy="354" r="70" fill="#F0D9B4"/>
    <circle cx="726" cy="354" r="70" fill="#F0D9B4"/>
    <ellipse cx="512" cy="602" rx="186" ry="232" fill="url(#fur-settings)"/>
    <circle cx="512" cy="406" r="228" fill="url(#fur-settings)"/>
    <circle cx="407" cy="420" r="104" fill="#FFFDF5"/>
    <circle cx="617" cy="420" r="104" fill="#FFFDF5"/>
    <circle cx="407" cy="420" r="72" fill="#15262D"/>
    <circle cx="617" cy="420" r="72" fill="#15262D"/>
    <circle cx="381" cy="388" r="24" fill="#FFFFFF"/>
    <circle cx="591" cy="388" r="24" fill="#FFFFFF"/>
    <circle cx="437" cy="455" r="12" fill="#69D7CD"/>
    <circle cx="647" cy="455" r="12" fill="#69D7CD"/>
    <path fill="#5D3F2D" d="M512 475c34 0 58 22 58 50 0 35-29 58-58 58s-58-23-58-58c0-28 24-50 58-50Z"/>
    <path fill="none" stroke="#4D3324" stroke-width="16" stroke-linecap="round" d="M474 602c24 24 52 24 76 0"/>
    <circle cx="330" cy="526" r="25" fill="#EAA48A" opacity=".75"/>
    <circle cx="694" cy="526" r="25" fill="#EAA48A" opacity=".75"/>
    <rect x="332" y="620" width="360" height="232" rx="42" fill="#FFFFFF"/>
    <path fill="#D9F4EF" d="M596 620v72c0 18 15 33 33 33h63l-96-105Z"/>
    <path fill="#0D6D70" d="m411 700 36-36 65 65 65-65 36 36-101 101-101-101Z"/>
    <rect x="422" y="808" width="180" height="22" rx="11" fill="#A8CDC6"/>
    <ellipse cx="322" cy="724" rx="50" ry="74" fill="#9E7858"/>
    <ellipse cx="702" cy="724" rx="50" ry="74" fill="#9E7858"/>
  </g>
</svg>
