<svg xmlns="http://www.w3.org/2000/svg" viewBox="0 0 1024 1024" role="img" aria-labelledby="title desc">
  <title id="title">Mdviewy document spark mark</title>
  <desc id="desc">Premium document icon with markdown caret and AI sparkle accent.</desc>
  <defs>
    <linearGradient id="bg" x1="150" y1="80" x2="870" y2="960" gradientUnits="userSpaceOnUse">
      <stop offset="0" stop-color="#FBF7EF"/>
      <stop offset=".52" stop-color="#E8F6F3"/>
      <stop offset="1" stop-color="#BFEAE4"/>
    </linearGradient>
    <linearGradient id="doc" x1="260" y1="188" x2="710" y2="812" gradientUnits="userSpaceOnUse">
      <stop offset="0" stop-color="#FFFFFF"/>
      <stop offset="1" stop-color="#EDF8F6"/>
    </linearGradient>
    <linearGradient id="accent" x1="338" y1="338" x2="698" y2="718" gradientUnits="userSpaceOnUse">
      <stop offset="0" stop-color="#0E5963"/>
      <stop offset="1" stop-color="#25BFAE"/>
    </linearGradient>
    <filter id="lift" x="160" y="120" width="720" height="780" filterUnits="userSpaceOnUse">
      <feDropShadow dx="0" dy="26" stdDeviation="34" flood-color="#17363A" flood-opacity=".18"/>
    </filter>
  </defs>
  <rect width="1024" height="1024" rx="224" fill="url(#bg)"/>
  <g filter="url(#lift)">
    <path fill="url(#doc)" d="M289 162h301c25 0 49 10 67 28l109 109c18 18 28 42 28 67v458c0 31-25 56-56 56H289c-31 0-56-25-56-56V218c0-31 25-56 56-56Z"/>
    <path fill="#B9E9E1" d="M599 184v126c0 28 22 50 50 50h123L599 184Z"/>
    <path fill="url(#accent)" d="m357 440 71-71 190 190-190 190-71-71 119-119-119-119Z"/>
    <rect x="365" y="764" width="298" height="36" rx="18" fill="#98CBC4"/>
    <path fill="#F4B84A" d="M766 184c17 69 32 84 101 101-69 17-84 32-101 101-17-69-32-84-101-101 69-17 84-32 101-101Z"/>
    <path fill="#FFF4C7" d="M849 369c9 37 18 46 55 55-37 9-46 18-55 55-9-37-18-46-55-55 37-9 46-18 55-55Z"/>
  </g>
</svg>
