<svg xmlns="http://www.w3.org/2000/svg" viewBox="0 0 1024 1024" role="img" aria-labelledby="title desc">
  <title id="title">Mdviewy abstract glyph mark</title>
  <desc id="desc">Rounded app tile with a stylized M, markdown caret, and document motif.</desc>
  <defs>
    <linearGradient id="tile" x1="152" y1="92" x2="872" y2="932" gradientUnits="userSpaceOnUse">
      <stop offset="0" stop-color="#12343B"/>
      <stop offset=".52" stop-color="#1B6B73"/>
      <stop offset="1" stop-color="#55C7B5"/>
    </linearGradient>
    <linearGradient id="glyph" x1="278" y1="226" x2="760" y2="812" gradientUnits="userSpaceOnUse">
      <stop offset="0" stop-color="#FFFFFF"/>
      <stop offset=".65" stop-color="#D9FFF7"/>
      <stop offset="1" stop-color="#9AF0DF"/>
    </linearGradient>
    <filter id="shadow" x="140" y="150" width="760" height="740" filterUnits="userSpaceOnUse">
      <feDropShadow dx="0" dy="28" stdDeviation="32" flood-color="#06252B" flood-opacity=".34"/>
    </filter>
  </defs>
  <rect width="1024" height="1024" rx="224" fill="url(#tile)"/>
  <circle cx="805" cy="192" r="156" fill="#F8D77E" opacity=".22"/>
  <circle cx="196" cy="824" r="180" fill="#0D2630" opacity=".2"/>
  <g filter="url(#shadow)">
    <path fill="url(#glyph)" d="M247 703V324c0-43 52-64 82-33l183 190 183-190c30-31 82-10 82 33v379c0 25-20 45-45 45s-45-20-45-45V435L544 583c-18 19-46 19-64 0L337 435v268c0 25-20 45-45 45s-45-20-45-45Z"/>
    <path fill="#12343B" opacity=".92" d="M398 701 512 587l114 114-66 66-48-48-48 48-66-66Z"/>
    <path fill="#FFFFFF" d="M658 282h88c18 0 32 14 32 32v92h-82c-21 0-38-17-38-38v-86Z" opacity=".9"/>
    <path fill="#7CE2D1" d="M681 305h12l62 62v12h-57c-9 0-17-8-17-17v-57Z"/>
  </g>
</svg>
