<svg xmlns="http://www.w3.org/2000/svg" viewBox="0 0 1024 1024" role="img" aria-labelledby="title desc">
  <title id="title">Mdviewy tarsier mascot</title>
  <desc id="desc">Cute flat vector tarsier with huge eyes holding a markdown document.</desc>
  <defs>
    <linearGradient id="tile" x1="144" y1="84" x2="878" y2="940" gradientUnits="userSpaceOnUse">
      <stop offset="0" stop-color="#102F38"/>
      <stop offset=".56" stop-color="#1C6C72"/>
      <stop offset="1" stop-color="#86D8C8"/>
    </linearGradient>
    <linearGradient id="fur" x1="310" y1="252" x2="710" y2="814" gradientUnits="userSpaceOnUse">
      <stop offset="0" stop-color="#C8AD8D"/>
      <stop offset="1" stop-color="#8A684C"/>
    </linearGradient>
    <filter id="lift" x="110" y="130" width="810" height="790" filterUnits="userSpaceOnUse">
      <feDropShadow dx="0" dy="30" stdDeviation="30" flood-color="#062329" flood-opacity=".33"/>
    </filter>
  </defs>
  <rect width="1024" height="1024" rx="224" fill="url(#tile)"/>
  <circle cx="198" cy="188" r="86" fill="#F4C85B" opacity=".32"/>
  <ellipse cx="512" cy="838" rx="236" ry="54" fill="#062329" opacity=".24"/>
  <g filter="url(#lift)">
    <circle cx="300" cy="356" r="132" fill="#9A7959"/>
    <circle cx="724" cy="356" r="132" fill="#9A7959"/>
    <circle cx="300" cy="356" r="74" fill="#F0D9B4"/>
    <circle cx="724" cy="356" r="74" fill="#F0D9B4"/>
    <ellipse cx="512" cy="596" rx="186" ry="236" fill="url(#fur)"/>
    <circle cx="512" cy="410" r="232" fill="url(#fur)"/>
    <circle cx="408" cy="420" r="104" fill="#FDFBF3"/>
    <circle cx="616" cy="420" r="104" fill="#FDFBF3"/>
    <circle cx="408" cy="420" r="72" fill="#1A252B"/>
    <circle cx="616" cy="420" r="72" fill="#1A252B"/>
    <circle cx="382" cy="388" r="24" fill="#FFFFFF"/>
    <circle cx="590" cy="388" r="24" fill="#FFFFFF"/>
    <circle cx="436" cy="454" r="12" fill="#58C8BF"/>
    <circle cx="644" cy="454" r="12" fill="#58C8BF"/>
    <path fill="#60432E" d="M512 475c34 0 58 22 58 50 0 35-29 58-58 58s-58-23-58-58c0-28 24-50 58-50Z"/>
    <path fill="none" stroke="#4E3324" stroke-width="16" stroke-linecap="round" d="M474 602c24 24 52 24 76 0"/>
    <circle cx="330" cy="526" r="26" fill="#E9A088" opacity=".75"/>
    <circle cx="694" cy="526" r="26" fill="#E9A088" opacity=".75"/>
    <rect x="340" y="620" width="344" height="226" rx="38" fill="#FFFFFF"/>
    <path fill="#D9F3EF" d="M594 620v68c0 17 14 31 31 31h59l-90-99Z"/>
    <path fill="#0E6F70" d="m413 699 34-34 65 65 65-65 34 34-99 99-99-99Z"/>
    <rect x="424" y="803" width="176" height="22" rx="11" fill="#A9CCC6"/>
    <ellipse cx="326" cy="724" rx="48" ry="72" fill="#9E7858"/>
    <ellipse cx="698" cy="724" rx="48" ry="72" fill="#9E7858"/>
  </g>
</svg>
