<svg xmlns="http://www.w3.org/2000/svg" viewBox="0 0 1024 1024" role="img" aria-labelledby="title desc">
  <title id="title">Mdviewy koala mascot</title>
  <desc id="desc">Cute flat vector koala holding a tiny markdown document.</desc>
  <defs>
    <linearGradient id="tile" x1="134" y1="84" x2="888" y2="944" gradientUnits="userSpaceOnUse">
      <stop offset="0" stop-color="#F8FAF8"/>
      <stop offset=".56" stop-color="#DFF3EF"/>
      <stop offset="1" stop-color="#83D7CC"/>
    </linearGradient>
    <linearGradient id="fur" x1="300" y1="218" x2="730" y2="790" gradientUnits="userSpaceOnUse">
      <stop offset="0" stop-color="#CDD5D7"/>
      <stop offset="1" stop-color="#8D9DA1"/>
    </linearGradient>
    <filter id="soft" x="120" y="150" width="780" height="780" filterUnits="userSpaceOnUse">
      <feDropShadow dx="0" dy="26" stdDeviation="26" flood-color="#234046" flood-opacity=".18"/>
    </filter>
  </defs>
  <rect width="1024" height="1024" rx="224" fill="url(#tile)"/>
  <ellipse cx="512" cy="832" rx="246" ry="56" fill="#3D7775" opacity=".18"/>
  <g filter="url(#soft)">
    <circle cx="294" cy="332" r="128" fill="#9DADB0"/>
    <circle cx="730" cy="332" r="128" fill="#9DADB0"/>
    <circle cx="294" cy="332" r="80" fill="#EEF0E7"/>
    <circle cx="730" cy="332" r="80" fill="#EEF0E7"/>
    <ellipse cx="512" cy="581" rx="214" ry="246" fill="url(#fur)"/>
    <circle cx="512" cy="398" r="224" fill="url(#fur)"/>
    <ellipse cx="412" cy="430" rx="72" ry="86" fill="#F9FBF7"/>
    <ellipse cx="612" cy="430" rx="72" ry="86" fill="#F9FBF7"/>
    <circle cx="412" cy="430" r="42" fill="#14333A"/>
    <circle cx="612" cy="430" r="42" fill="#14333A"/>
    <circle cx="394" cy="406" r="16" fill="#FFFFFF"/>
    <circle cx="594" cy="406" r="16" fill="#FFFFFF"/>
    <ellipse cx="512" cy="476" rx="52" ry="64" fill="#172A30"/>
    <path fill="none" stroke="#172A30" stroke-width="18" stroke-linecap="round" d="M476 544c22 29 50 29 72 0"/>
    <circle cx="334" cy="508" r="28" fill="#F0B8A5" opacity=".8"/>
    <circle cx="690" cy="508" r="28" fill="#F0B8A5" opacity=".8"/>
    <rect x="329" y="589" width="366" height="245" rx="42" fill="#FFFFFF"/>
    <path fill="#D6F2ED" d="M604 589v76c0 18 15 33 33 33h58l-91-109Z"/>
    <path fill="#16877F" d="m414 686 38-38 60 60 60-60 38 38-98 98-98-98Z"/>
    <rect x="417" y="778" width="194" height="24" rx="12" fill="#A8CBC6"/>
    <ellipse cx="315" cy="690" rx="54" ry="78" fill="#9BAAAF"/>
    <ellipse cx="709" cy="690" rx="54" ry="78" fill="#9BAAAF"/>
  </g>
</svg>
